# xmcd CD database file
#
# Track frame offsets:
#	150
#	21919
#	51072
#	70472
#	91027
#
# Disc length: 1410 seconds
#
# Revision: 0
# Processed by: cddbd v1.5.2PL0 Copyright (c) Steve Scherf et al.
# Submitted via: NeoAudio 9.9.9
#
DISCID=39058005
DTITLE=Zackariah - Cartoons I'd Like To F***
DYEAR=2006
DGENRE=Country
TTITLE0=01 - Cartoons I'd Like To F***
TTITLE1=02 - E-Zachulate
TTITLE2=03 - Other Side
TTITLE3=04 - House Of Cards
TTITLE4=05 - Cartoons I'd Like To F*** (Internet Edit)
EXTD=YEAR: 2006
EXTT0=
EXTT1=
EXTT2=
EXTT3=
EXTT4=
PLAYORDER=
